<svg
	xmlns="http://www.w3.org/2000/svg"
	xmlns:xlink="http://www.w3.org/1999/xlink"
	viewBox="0 0 64 64"
	preserveAspectRatio="xMidYMid"
	fill="transparent"
	stroke="grey"
	stroke-width="3">
	<title>P44 Logo</title>
	<polygon
		points="0,0 64,0 64,64 0,64"
		fill="#050A23"
		stroke-width="0">
	</polygon>
	<path
		d="M 4 36 C 12 52, 52 52, 60 36 C 52 68, 12 68, 4 36" 
		stroke-width="0"
		fill="white">
	</path>
	<g
		stroke="#050A23"
		stroke-width="1">
		<path d="M 4 36 C 12 60, 52 60, 60 36"></path>
		<line x1="12" y1="40" x2="12" y2="52"></line>
		<line x1="20" y1="44" x2="20" y2="60"></line>
		<line x1="28" y1="48" x2="28" y2="60"></line>
		<line x1="36" y1="48" x2="36" y2="60"></line>
		<line x1="44" y1="44" x2="44" y2="60"></line>
		<line x1="52" y1="40" x2="52" y2="52"></line>
	</g>
	<path
		d="M 16 26 C 13 20, 13 8, 16 0 C 8 4, 2 12, 0 22 C 6 19, 12 16, 20 18"
		stroke-linecap="round"
		stroke-width="3"
		stroke="#DAA520"
		transform="translate(6, 6)">
	</path>
	<path
		d="M 16 26 C 13 20, 13 8, 16 0 C 8 4, 2 12, 0 22 C 6 19, 12 16, 20 18"
		stroke-linecap="round"
		stroke-width="3"
		stroke="#DAA520"
		transform="translate(38, 6)">
	</path>
</svg>
